<svg width="22" height="23" viewBox="0 0 22 23" fill="none" xmlns="http://www.w3.org/2000/svg">
<g clip-path="url(#clip0)">
<path d="M6.63317 1.54891V3.09783H9.13597V2.06522H7.67829V1.03261H9.13597V0H6.63317V1.54891ZM9.63377 1.00815L9.6379 2.01766L10.364 2.02174L11.0887 2.02446V2.20109H9.63102V3.13859H12.1338V1.07337H10.6761V0.896739H12.1338V0H9.63102L9.63377 1.00815ZM12.6426 1.01223V2.02446H14.0865V2.20109H12.6426V3.13859H15.1317V1.07337H13.6878V0.896739H15.1317V0H12.6426V1.01223ZM2.76071 4.56793C2.76484 4.59239 3.10313 8.33288 3.51293 12.8804C3.92273 17.428 4.25827 21.1495 4.25964 21.1508C4.26102 21.1522 5.77507 21.5693 7.62604 22.0761L10.9911 23L14.3643 22.0761C16.2194 21.5679 17.739 21.1508 17.739 21.1495C17.7404 21.1495 18.0759 17.4307 18.4857 12.8872C18.8955 8.34375 19.2338 4.60326 19.2379 4.57473L19.2462 4.52446H2.75384L2.76071 4.56793ZM16.163 7.95109C16.163 7.98098 16.0654 9.06658 15.4906 15.4266C15.3476 17.0095 15.2252 18.3098 15.2183 18.3152C15.2032 18.3288 11.0282 19.4701 10.9952 19.4701C10.9691 19.4701 6.77344 18.3234 6.76381 18.3125C6.76106 18.3098 6.69643 17.6141 6.62079 16.7663C6.54379 15.9185 6.47915 15.1984 6.47365 15.1658L6.46678 15.1087H7.50502C8.07709 15.1087 8.54465 15.1101 8.54602 15.1114C8.54602 15.1141 8.57903 15.4783 8.62028 15.9212C8.66016 16.3655 8.69591 16.7296 8.69866 16.7323C8.70141 16.7351 9.2171 16.875 9.84692 17.0421L10.9897 17.3478L12.1352 17.0421C12.7664 16.8736 13.2848 16.7337 13.2876 16.7323C13.2931 16.7255 13.5214 14.2092 13.5227 14.1399V14.0897H6.37189V14.0557C6.37189 14.0367 6.33201 13.5788 6.2825 13.0394C6.233 12.5 6.19312 12.0571 6.19312 12.0543C6.19312 12.053 7.88594 12.0516 9.95419 12.0516H13.7153V12.0177C13.7153 12 13.7551 11.538 13.8046 10.9946C13.8541 10.4497 13.894 9.99321 13.894 9.98098C13.894 9.9606 13.5901 9.95924 9.95144 9.95652L6.00747 9.95245L5.92359 9.02853C5.87683 8.52038 5.8342 8.06386 5.8287 8.01223L5.82045 7.9212H16.163V7.95109Z" fill="#E3E3E3"/>
</g>
<defs>
<clipPath id="clip0">
<rect width="22" height="23" fill="white"/>
</clipPath>
</defs>
</svg>
