<svg width="15" height="22" viewBox="0 0 15 22" fill="none" xmlns="http://www.w3.org/2000/svg">
<path d="M3.75075 22C5.82033 22 7.5 20.3573 7.5 18.3333V14.6667H3.75075C1.68116 14.6667 0.00149536 16.3093 0.00149536 18.3333C0.00149536 20.3573 1.68116 22 3.75075 22Z" fill="#D2D2D2"/>
<path d="M0.00149536 11C0.00149536 8.97598 1.68116 7.33331 3.75075 7.33331H7.5V14.6666H3.75075C1.68116 14.6666 0.00149536 13.024 0.00149536 11Z" fill="#D2D2D2"/>
<path d="M0.00254059 3.66673C0.00254059 1.64273 1.68221 6.10352e-05 3.75179 6.10352e-05H7.50104V7.33339H3.75179C1.68221 7.33339 0.00254059 5.69073 0.00254059 3.66673Z" fill="#D2D2D2"/>
<path d="M7.5 3.05176e-05H11.2493C13.3188 3.05176e-05 14.9985 1.6427 14.9985 3.6667C14.9985 5.6907 13.3188 7.33336 11.2493 7.33336H7.5V3.05176e-05Z" fill="#D2D2D2"/>
<path d="M14.9985 11C14.9985 13.024 13.3188 14.6666 11.2493 14.6666C9.17967 14.6666 7.5 13.024 7.5 11C7.5 8.97598 9.17967 7.33331 11.2493 7.33331C13.3188 7.33331 14.9985 8.97598 14.9985 11Z" fill="#D2D2D2"/>
</svg>
