<svg width="17" height="23" viewBox="0 0 17 23" fill="none" xmlns="http://www.w3.org/2000/svg">
<path d="M1.54706 21.1518L0 4.52063H17L15.4513 21.1492L8.48957 22.999L1.54706 21.1518Z" fill="#E2E2E2"/>
<path d="M8.49998 21.5851L14.1254 20.0904L15.4489 5.88052H8.49998V21.5851Z" fill="#E2E2E2"/>
<path d="M8.49996 12.0488H5.68376L5.48926 9.96006H8.49996V7.92029H3.16338L3.21432 8.46752L3.7374 14.0885H8.49996V12.0488ZM8.49996 17.3462L8.49068 17.3486L6.12041 16.7352L5.96889 15.1084H3.83249L4.13065 18.3111L8.49017 19.471L8.49996 19.4684V17.3462Z" fill="#414141"/>
<path d="M1.58163 0.0010376H2.66317V1.02517H3.65252V0.0010376H4.7341V3.10235H3.65257V2.06385H2.66322V3.10235H1.58173V0.0010376H1.58163V0.0010376ZM6.15636 1.02948H5.20427V0.0010376H8.1906V1.02948H7.23804V3.10235H6.15645L6.15636 1.02948V1.02948ZM8.66451 0.0010376H9.79221L10.4859 1.09075L11.179 0.0010376H12.3072V3.10235H11.2301V1.56517L10.486 2.66786H10.4674L9.72275 1.56517V3.10235H8.66456V0.0010376H8.66451ZM12.8454 0.0010376H13.9273V2.07723H15.4482V3.10235H12.8454V0.0010376Z" fill="#E2E2E2"/>
<path d="M8.49265 12.0488V14.0885H11.1133L10.8662 16.7339L8.49265 17.3479V19.47L12.8556 18.3111L12.8876 17.9665L13.3877 12.5965L13.4396 12.0488H12.8661H8.49265ZM8.49265 7.92029V9.96006H13.6333L13.676 9.50158L13.7729 8.46752L13.8238 7.92029H8.49265Z" fill="#414141"/>
</svg>
