<svg width="15" height="24" viewBox="0 0 15 24" fill="none" xmlns="http://www.w3.org/2000/svg">
<path d="M9.03757 23.3801C8.97218 23.3801 8.90679 23.3674 8.84351 23.3442C8.70851 23.2915 8.60093 23.1881 8.54187 23.0552L5.39047 15.7694L1.46914 19.4545C1.31304 19.6022 1.08312 19.6402 0.884842 19.5558C0.68867 19.4714 0.559998 19.2752 0.559998 19.0601V1.24007C0.559998 1.02492 0.68656 0.830856 0.884842 0.744371C1.08101 0.659996 1.31093 0.697965 1.46914 0.845621L14.4291 12.9408C14.5852 13.0863 14.6401 13.312 14.5705 13.5124C14.5009 13.7149 14.3194 13.8562 14.1064 13.8752L8.60726 14.3477L11.9042 21.5365C11.9633 21.6652 11.9696 21.8149 11.919 21.9499C11.8684 22.0849 11.7692 22.1925 11.6384 22.2516L9.26117 23.3316C9.18945 23.3632 9.11562 23.3801 9.03757 23.3801Z" fill="white"/>
</svg>
