<svg width="15" height="24" viewBox="0 0 15 24" fill="none" xmlns="http://www.w3.org/2000/svg">
<path d="M8.99893 23.3801C8.9337 23.3801 8.86846 23.3674 8.80533 23.3442C8.67066 23.2915 8.56334 23.1881 8.50442 23.0552L5.36061 15.7694L1.44873 19.4545C1.29301 19.6022 1.06364 19.6402 0.86584 19.5558C0.670141 19.4714 0.541779 19.2752 0.541779 19.0601V1.24007C0.541779 1.02492 0.668036 0.830856 0.86584 0.744371C1.06154 0.659996 1.29091 0.697965 1.44873 0.845621L14.3775 12.9408C14.5332 13.0863 14.5879 13.312 14.5185 13.5124C14.449 13.7149 14.2681 13.8562 14.0555 13.8752L8.56965 14.3477L11.8587 21.5365C11.9176 21.6652 11.9239 21.8149 11.8734 21.9499C11.8229 22.0849 11.724 22.1925 11.5935 22.2516L9.22198 23.3316C9.15044 23.3632 9.07679 23.3801 8.99893 23.3801Z" fill="#494949"/>
</svg>
