<svg width="19" height="19" viewBox="0 0 19 19" fill="none" xmlns="http://www.w3.org/2000/svg">
<path d="M0 0H19V19H0V0Z" fill="#8D8D8D"/>
<path d="M17.445 14.4685C17.3059 13.6016 16.7406 12.8738 15.0664 12.1947C14.4848 11.9274 13.8364 11.7359 13.6432 11.2952C13.5745 11.0388 13.5655 10.8943 13.6089 10.739C13.7335 10.2351 14.3349 10.0779 14.8117 10.2224C15.1187 10.3254 15.4095 10.562 15.5847 10.9394C16.4047 10.4085 16.4029 10.4121 16.9754 10.0473C16.7659 9.72216 16.6539 9.57224 16.5166 9.43319C16.0236 8.88233 15.3517 8.59878 14.2771 8.62045C14.0911 8.64393 13.9033 8.6692 13.7172 8.69269C13.1808 8.82815 12.6697 9.1099 12.3699 9.48737C11.4705 10.5078 11.7269 12.294 12.8214 13.0291C13.8996 13.8382 15.4836 14.0224 15.6858 14.7792C15.8827 15.7057 15.005 16.0055 14.1326 15.899C13.4897 15.7653 13.1321 15.4384 12.7455 14.8442C12.034 15.256 12.034 15.256 11.3025 15.6768C11.4759 16.0561 11.6583 16.2277 11.9491 16.5564C13.3253 17.9525 16.7695 17.8839 17.3872 15.7707C17.4125 15.6985 17.5786 15.2144 17.445 14.4685V14.4685ZM10.329 8.73241H8.55182C8.55182 10.2676 8.54461 11.7919 8.54461 13.3271C8.54461 14.3042 8.59518 15.2 8.43625 15.4745C8.17617 16.0145 7.5025 15.9477 7.19547 15.8429C6.88302 15.6894 6.72408 15.4709 6.53986 15.1621C6.48929 15.0736 6.45136 15.0049 6.4387 14.9995C5.9565 15.2939 5.47606 15.5901 4.99384 15.8845C5.23406 16.3776 5.58804 16.8056 6.04136 17.0837C6.71865 17.4901 7.62891 17.6147 8.58074 17.3962C9.20022 17.2156 9.7348 16.8417 10.0147 16.2728C10.4193 15.5269 10.3326 14.6239 10.329 13.6251C10.338 11.996 10.329 10.3669 10.329 8.73241Z" fill="white"/>
</svg>
