<svg width="25" height="25" viewBox="0 0 25 25" fill="none" xmlns="http://www.w3.org/2000/svg">
<circle cx="12.5" cy="12.5" r="12.5" fill="white"/>
<path d="M11.6813 0.00672759C11.6276 0.0116145 11.4565 0.0287185 11.3025 0.0409357C7.75171 0.361025 4.42571 2.27668 2.31916 5.22102C1.14614 6.85812 0.395894 8.71513 0.112414 10.6821C0.012219 11.3687 0 11.5715 0 12.5024C0 13.4334 0.012219 13.6362 0.112414 14.3228C0.791789 19.0166 4.13245 22.9603 8.66325 24.4215C9.47458 24.683 10.3299 24.8613 11.3025 24.9688C11.6813 25.0104 13.3187 25.0104 13.6975 24.9688C15.3763 24.7831 16.7986 24.3678 18.2014 23.6518C18.4164 23.5419 18.458 23.5126 18.4286 23.4881C18.4091 23.4735 17.4927 22.2444 16.393 20.7588L14.3939 18.0588L11.8891 14.3521C10.5108 12.3143 9.37683 10.6479 9.36706 10.6479C9.35728 10.6454 9.34751 12.2923 9.34262 14.3033C9.33529 17.8242 9.33284 17.966 9.28886 18.049C9.22532 18.1688 9.17644 18.2176 9.0738 18.2714C8.9956 18.3105 8.92718 18.3178 8.55816 18.3178H8.13539L8.02297 18.247C7.94966 18.2005 7.89589 18.1394 7.85924 18.0686L7.80792 17.9586L7.81281 13.0596L7.82014 8.15802L7.89589 8.06273C7.935 8.01142 8.01808 7.94544 8.07673 7.91368C8.17693 7.86481 8.21603 7.85992 8.63881 7.85992C9.13734 7.85992 9.22043 7.87947 9.34995 8.02119C9.38661 8.06028 10.7429 10.103 12.3656 12.5635C13.9883 15.0241 16.2072 18.3838 17.2972 20.0331L19.2766 23.0312L19.3768 22.9652C20.2639 22.3886 21.2023 21.5676 21.9453 20.7124C23.5264 18.8969 24.5455 16.6832 24.8876 14.3228C24.9878 13.6362 25 13.4334 25 12.5024C25 11.5715 24.9878 11.3687 24.8876 10.6821C24.2082 5.98825 20.8675 2.04455 16.3368 0.583378C15.5376 0.324374 14.6872 0.146003 13.7341 0.0384922C13.4995 0.0140579 11.8842 -0.0128199 11.6813 0.00672759ZM16.7986 7.56671C16.9159 7.62535 17.0112 7.73775 17.0455 7.85504C17.065 7.91857 17.0699 9.27712 17.065 12.3387L17.0577 16.732L16.283 15.5445L15.5059 14.357V11.1634C15.5059 9.09874 15.5156 7.93811 15.5303 7.88191C15.5694 7.74508 15.6549 7.63757 15.7722 7.57404C15.8724 7.52273 15.9091 7.51784 16.2928 7.51784C16.6544 7.51784 16.718 7.52273 16.7986 7.56671Z" fill="#686868"/>
</svg>
