<svg width="24" height="21" viewBox="0 0 24 21" fill="none" xmlns="http://www.w3.org/2000/svg">
<path d="M24 10.5024C24 8.94026 22.009 7.45983 18.9564 6.54177C19.6608 3.48478 19.3477 1.05264 17.9682 0.273976C17.6502 0.0913251 17.2784 0.00480652 16.8724 0.00480652V1.07668C17.0974 1.07668 17.2784 1.11994 17.4301 1.20165C18.0954 1.57656 18.384 3.00412 18.159 4.84024C18.1052 5.29206 18.0171 5.76791 17.9095 6.25338C16.9507 6.02266 15.9038 5.84482 14.8031 5.72946C14.1427 4.84024 13.4578 4.03273 12.768 3.32616C14.3628 1.86976 15.8598 1.07187 16.8773 1.07187V0C15.532 0 13.7709 0.942092 11.9902 2.57633C10.2095 0.951705 8.44843 0.0192264 7.10314 0.0192264V1.0911C8.11578 1.0911 9.61761 1.88418 11.2124 3.33097C10.5275 4.03754 9.84264 4.84024 9.19201 5.72946C8.08643 5.84482 7.03954 6.02266 6.08072 6.25818C5.9682 5.77752 5.88504 5.31128 5.82633 4.86427C5.59641 3.02815 5.88015 1.6006 6.54056 1.22087C6.68732 1.13436 6.87811 1.0959 7.10314 1.0959V0.024033C6.69221 0.024033 6.32042 0.110552 5.99755 0.293202C4.62291 1.07187 4.31472 3.4992 5.02405 6.54658C1.98125 7.46944 0 8.94507 0 10.5024C0 12.0645 1.99103 13.545 5.04362 14.463C4.33918 17.52 4.65226 19.9522 6.0318 20.7308C6.34978 20.9135 6.72157 21 7.13249 21C8.47778 21 10.2389 20.0579 12.0196 18.4237C13.8002 20.0483 15.5614 20.9808 16.9066 20.9808C17.3176 20.9808 17.6894 20.8943 18.0122 20.7116C19.3869 19.9329 19.6951 17.5056 18.9857 14.4582C22.0188 13.5402 24 12.0597 24 10.5024V10.5024ZM17.6307 7.29641C17.4497 7.91646 17.2246 8.55573 16.9702 9.19501C16.7697 8.81048 16.5593 8.42596 16.3294 8.04143C16.1044 7.6569 15.8647 7.28199 15.625 6.91668C16.3196 7.01762 16.9898 7.1426 17.6307 7.29641ZM15.3901 12.4154C15.0086 13.0643 14.6172 13.6796 14.2112 14.2515C13.4823 14.314 12.7436 14.3477 12 14.3477C11.2613 14.3477 10.5226 14.314 9.79861 14.2564C9.39258 13.6844 8.99633 13.0739 8.61476 12.4298C8.24297 11.8002 7.90542 11.1609 7.59723 10.5168C7.90053 9.87274 8.24297 9.22866 8.60987 8.59899C8.99144 7.9501 9.3828 7.33486 9.78883 6.76287C10.5177 6.70039 11.2564 6.66674 12 6.66674C12.7387 6.66674 13.4774 6.70039 14.2014 6.75807C14.6074 7.33005 15.0037 7.94049 15.3852 8.58457C15.757 9.21424 16.0946 9.85351 16.4028 10.4976C16.0946 11.1417 15.757 11.7858 15.3901 12.4154ZM16.9702 11.7906C17.2344 12.4347 17.4594 13.0787 17.6453 13.7036C17.0045 13.8574 16.3294 13.9872 15.6298 14.0881C15.8695 13.718 16.1093 13.3383 16.3343 12.949C16.5593 12.5644 16.7697 12.1751 16.9702 11.7906ZM12.0098 16.9192C11.5548 16.4578 11.0999 15.9435 10.6498 15.3811C11.0901 15.4003 11.5402 15.4147 11.9951 15.4147C12.455 15.4147 12.9099 15.4051 13.3551 15.3811C12.9148 15.9435 12.4598 16.4578 12.0098 16.9192ZM8.37016 14.0881C7.6755 13.9872 7.0053 13.8622 6.36445 13.7084C6.54545 13.0883 6.77049 12.4491 7.02487 11.8098C7.22544 12.1943 7.43579 12.5789 7.66572 12.9634C7.89564 13.3479 8.13045 13.7228 8.37016 14.0881ZM11.9853 4.0856C12.4403 4.54704 12.8952 5.06134 13.3453 5.62371C12.905 5.60449 12.455 5.59007 12 5.59007C11.5402 5.59007 11.0852 5.59968 10.64 5.62371C11.0803 5.06134 11.5353 4.54704 11.9853 4.0856ZM8.36527 6.91668C8.12556 7.28679 7.88585 7.66651 7.66082 8.05585C7.43579 8.44038 7.22544 8.8249 7.02487 9.20943C6.7607 8.56535 6.53567 7.92126 6.34978 7.29641C6.99062 7.1474 7.66572 7.01762 8.36527 6.91668V6.91668ZM3.93804 12.9345C2.20628 12.2087 1.08602 11.257 1.08602 10.5024C1.08602 9.74777 2.20628 8.79126 3.93804 8.07027C4.35875 7.89242 4.81859 7.73381 5.29311 7.5848C5.57195 8.52689 5.93885 9.50744 6.3938 10.512C5.94374 11.5118 5.58174 12.4875 5.30779 13.4248C4.82348 13.2758 4.36364 13.1124 3.93804 12.9345ZM6.56991 19.8032C5.90461 19.4282 5.61598 18.0007 5.84101 16.1646C5.89482 15.7127 5.98288 15.2369 6.0905 14.7514C7.04933 14.9821 8.09621 15.16 9.1969 15.2753C9.85732 16.1646 10.5422 16.9721 11.232 17.6786C9.63718 19.135 8.14024 19.9329 7.12271 19.9329C6.90257 19.9281 6.71667 19.8849 6.56991 19.8032V19.8032ZM18.1737 16.1405C18.4036 17.9767 18.1199 19.4042 17.4594 19.7839C17.3127 19.8704 17.1219 19.9089 16.8969 19.9089C15.8842 19.9089 14.3824 19.1158 12.7876 17.669C13.4725 16.9625 14.1574 16.1598 14.808 15.2705C15.9136 15.1552 16.9605 14.9773 17.9193 14.7418C18.0318 15.2273 18.1199 15.6935 18.1737 16.1405V16.1405ZM20.0571 12.9345C19.6364 13.1124 19.1765 13.271 18.702 13.42C18.4232 12.4779 18.0563 11.4974 17.6013 10.4928C18.0514 9.49302 18.4134 8.51728 18.6873 7.57999C19.1716 7.729 19.6315 7.89242 20.062 8.07027C21.7937 8.79606 22.914 9.74777 22.914 10.5024C22.9091 11.257 21.7888 12.2135 20.0571 12.9345V12.9345Z" fill="#EFEFEF"/>
<path d="M12 13C13.1046 13 14 11.8807 14 10.5C14 9.11929 13.1046 8 12 8C10.8954 8 10 9.11929 10 10.5C10 11.8807 10.8954 13 12 13Z" fill="#EFEFEF"/>
</svg>
