<svg width="24" height="11" viewBox="0 0 24 11" fill="none" xmlns="http://www.w3.org/2000/svg">
<path d="M16.214 0L16.139 0.391C16.023 1.132 16.065 1.344 16.383 1.619L16.69 1.873L16.372 3.291C16.182 4.137 15.949 4.846 15.801 5.079C15.674 5.28 15.526 5.576 15.494 5.735C15.441 5.925 15.261 6.116 14.986 6.285C14.743 6.423 14.266 6.793 13.928 7.09C13.658 7.333 13.472 7.482 13.371 7.546L13.041 7.807C12.935 7.977 12.875 8.114 12.852 8.218C12.829 8.325 12.842 8.396 12.876 8.448C12.909 8.498 12.966 8.533 13.044 8.555C13.1363 8.57664 13.2314 8.58439 13.326 8.578C13.5401 8.56337 13.7519 8.52583 13.958 8.466C14.028 8.447 14.083 8.429 14.131 8.413C14.205 8.322 14.376 8.15 14.679 7.851C15.483 7.058 15.79 6.624 15.473 6.741C15.356 6.783 15.409 6.677 15.61 6.465C16.034 6.052 16.277 5.428 16.785 3.471C17.187 1.926 17.187 1.904 17.483 1.904C17.622 1.904 18.015 1.928 18.015 1.928V0H17.113H16.214ZM20.053 3.165C19.989 3.165 19.883 3.261 19.82 3.367C19.704 3.557 19.841 3.673 21.587 4.763C22.624 5.42 23.46 5.98 23.439 6.023C23.418 6.054 22.571 6.605 21.556 7.24C19.714 8.382 19.704 8.393 19.873 8.626C20.085 8.901 19.873 8.996 22.264 7.504L24 6.393V5.557L22.063 4.361C21.016 3.705 20.106 3.176 20.053 3.165ZM3.968 3.282C3.915 3.282 3.005 3.822 1.958 4.467L0 5.663V6.499L1.947 7.716C3.027 8.382 3.937 8.933 3.979 8.933C4.021 8.933 4.106 8.837 4.191 8.721C4.318 8.52 4.211 8.435 2.423 7.303C0.72 6.234 0.54 6.086 0.71 5.97C0.816 5.896 1.62 5.398 2.488 4.859C4.467 3.642 4.361 3.726 4.202 3.472C4.139 3.367 4.032 3.272 3.969 3.282H3.968ZM12.652 3.305C12.36 3.303 11.732 3.748 9.852 5.283C9.771 5.476 9.764 5.609 9.801 5.695C9.825 5.754 9.869 5.795 9.93 5.825C9.99 5.855 10.068 5.873 10.154 5.88C10.325 5.895 10.527 5.868 10.69 5.836L10.8 5.811C10.8377 5.76051 10.8871 5.72 10.944 5.693C11.06 5.629 11.547 5.185 12.034 4.709C12.891 3.841 13.092 3.449 12.743 3.322C12.7144 3.31061 12.6828 3.30484 12.652 3.305ZM14.848 3.908C14.591 3.915 14.128 4.213 13.335 4.846C12.937 5.169 12.685 5.343 12.55 5.379L12.026 5.793C11.829 6.153 11.8 6.376 11.852 6.499C11.865 6.52934 11.8839 6.5568 11.9076 6.5798C11.9313 6.6028 11.9593 6.62088 11.99 6.633C12.0664 6.66317 12.1479 6.67844 12.23 6.678C12.4263 6.67591 12.6214 6.64732 12.81 6.593C12.9083 6.56662 13.0054 6.53592 13.101 6.501L13.13 6.489L13.183 6.461C13.283 6.332 13.513 6.089 13.801 5.809C14.711 4.931 15.176 4.307 15.081 4.074C15.038 3.961 14.964 3.904 14.848 3.908ZM12.424 4.988C12.35 4.996 12.184 5.124 11.885 5.386C11.453 5.768 10.982 5.988 10.819 5.89C10.7811 5.89856 10.7431 5.90656 10.705 5.914C10.539 5.947 10.332 5.974 10.147 5.959C10.0598 5.95372 9.9744 5.93236 9.895 5.896C9.82011 5.86176 9.76035 5.80129 9.727 5.726C9.69 5.636 9.69 5.524 9.732 5.381L9.082 5.915L7.611 7.132V9.105L12.431 5.308C12.4301 5.26643 12.4355 5.22495 12.447 5.185C12.484 5.051 12.482 4.983 12.424 4.989V4.988ZM14.498 5.627C14.425 5.627 14.303 5.73 14.108 5.937C13.843 6.22 13.426 6.494 13.205 6.55L13.171 6.568C13.1347 6.58298 13.098 6.59699 13.061 6.61C13.001 6.63 12.923 6.654 12.833 6.678C12.653 6.727 12.429 6.772 12.229 6.767C12.1347 6.76688 12.0413 6.74854 11.954 6.713C11.8717 6.67907 11.8057 6.61455 11.77 6.533C11.712 6.394 11.735 6.199 11.862 5.922L7.61 9.271V10.476H9.478L13.44 7.364C13.543 7.25 13.698 7.094 13.907 6.899C14.467 6.38 14.594 6.201 14.594 5.936C14.594 5.73 14.571 5.626 14.498 5.626V5.627ZM15.441 7.577L15.102 7.915C14.912 8.095 14.573 8.317 14.341 8.412L14.295 8.432L14.292 8.437L14.282 8.447C14.273 8.454 14.269 8.455 14.262 8.458C14.1694 8.49305 14.0753 8.52408 13.98 8.551C13.7681 8.61267 13.5502 8.65123 13.33 8.666C13.2259 8.67267 13.1214 8.66357 13.02 8.639C12.932 8.61963 12.8543 8.56832 12.802 8.495C12.754 8.421 12.74 8.322 12.767 8.2C12.7885 8.11314 12.8204 8.0292 12.862 7.95L9.665 10.476H13.917L14.425 9.894C15.123 9.08 15.441 8.498 15.441 8V7.577Z" fill="#E3E3E3"/>
</svg>
