<svg width="21" height="21" viewBox="0 0 21 21" fill="none" xmlns="http://www.w3.org/2000/svg">
<path d="M0 10.5V0H21V21H0" fill="#8D8D8D"/>
<path d="M4.60425 10.5368V11.3925H7.33425V19.1625H9.2715V11.3925H12.0015V10.5525C12.0015 10.08 12.0015 9.69676 11.9805 9.68626C11.9805 9.67051 10.3163 9.66526 8.295 9.66526L4.62 9.68101V10.542L4.60425 10.5368V10.5368ZM16.8735 9.66001C17.409 9.78601 17.8185 10.0275 18.186 10.4108C18.3803 10.6208 18.669 10.9883 18.69 11.0828C18.69 11.1143 17.7818 11.7285 17.2305 12.0698C17.2095 12.0855 17.1255 11.9963 17.0415 11.8598C16.7685 11.4713 16.4903 11.3033 16.0545 11.2718C15.4245 11.2298 15.0045 11.5605 15.0045 12.1118C15.0045 12.2798 15.036 12.3743 15.099 12.5108C15.2408 12.7995 15.5033 12.9728 16.317 13.3298C17.8185 13.9755 18.4695 14.4008 18.8633 15.0098C19.3095 15.6923 19.4093 16.7633 19.11 17.5665C18.774 18.4433 17.955 19.0365 16.7843 19.2308C16.4168 19.2938 15.5768 19.2833 15.183 19.215C14.343 19.0575 13.5398 18.6375 13.0463 18.0968C12.852 17.8868 12.4793 17.325 12.5003 17.2883L12.6998 17.1623L13.4873 16.7055L14.0805 16.359L14.217 16.5428C14.3903 16.8158 14.7788 17.1833 15.0045 17.3093C15.687 17.661 16.6005 17.6138 17.052 17.2043C17.2463 17.0258 17.3303 16.8368 17.3303 16.5743C17.3303 16.3328 17.2935 16.2225 17.1728 16.0388C17.0048 15.8078 16.6688 15.6188 15.7238 15.1988C14.637 14.7368 14.175 14.4428 13.7445 13.9913C13.4978 13.7183 13.272 13.293 13.167 12.9413C13.0883 12.6368 13.062 11.8913 13.1355 11.592C13.3613 10.542 14.154 9.80701 15.288 9.59701C15.6555 9.52351 16.5218 9.55501 16.884 9.64951L16.8735 9.66001V9.66001Z" fill="white"/>
</svg>
