<svg width="32" height="32" viewBox="0 0 32 32" fill="none" xmlns="http://www.w3.org/2000/svg">
<rect width="32" height="32" rx="5" fill="#111111"/>
<path d="M6.56774 22V9.63636H11.4456C12.3833 9.63636 13.1822 9.81546 13.8422 10.1737C14.5023 10.5278 15.0054 11.0208 15.3515 11.6527C15.7016 12.2805 15.8767 13.005 15.8767 13.826C15.8767 14.647 15.6996 15.3714 15.3454 15.9993C14.9913 16.6271 14.4781 17.1161 13.806 17.4663C13.1379 17.8164 12.329 17.9915 11.3792 17.9915H8.27015V15.8967H10.9566C11.4597 15.8967 11.8742 15.8101 12.2002 15.6371C12.5302 15.46 12.7757 15.2165 12.9367 14.9066C13.1017 14.5927 13.1842 14.2325 13.1842 13.826C13.1842 13.4155 13.1017 13.0573 12.9367 12.7514C12.7757 12.4415 12.5302 12.2021 12.2002 12.033C11.8702 11.86 11.4516 11.7734 10.9445 11.7734H9.18173V22H6.56774ZM17.5746 22V9.63636H22.4524C23.3902 9.63636 24.189 9.81546 24.8491 10.1737C25.5091 10.5278 26.0122 11.0208 26.3583 11.6527C26.7085 12.2805 26.8835 13.005 26.8835 13.826C26.8835 14.647 26.7064 15.3714 26.3523 15.9993C25.9981 16.6271 25.485 17.1161 24.8129 17.4663C24.1448 17.8164 23.3358 17.9915 22.386 17.9915H19.277V15.8967H21.9634C22.4665 15.8967 22.881 15.8101 23.207 15.6371C23.5371 15.46 23.7826 15.2165 23.9435 14.9066C24.1085 14.5927 24.1911 14.2325 24.1911 13.826C24.1911 13.4155 24.1085 13.0573 23.9435 12.7514C23.7826 12.4415 23.5371 12.2021 23.207 12.033C22.877 11.86 22.4585 11.7734 21.9513 11.7734H20.1886V22H17.5746Z" fill="white"/>
</svg>
